<svg width="67" height="67" viewBox="0 0 67 67" fill="none" xmlns="http://www.w3.org/2000/svg">
<path d="M0.499995 33.5C0.499997 15.2746 15.2746 0.500003 33.5 0.500005C51.7254 0.500006 66.5 15.2746 66.5 33.5C66.5 51.7254 51.7254 66.5 33.5 66.5C15.2746 66.5 0.499994 51.7254 0.499995 33.5Z" fill="white" stroke="#00BE5D"/>
<path d="M48.1734 30.8593C47.9059 30.5963 47.6196 30.3499 47.352 30.0869C46.8142 29.5584 46.6373 28.9345 46.8222 28.2269C46.9244 27.8353 47.0497 27.4487 47.1458 27.0562C47.4676 25.7454 46.6337 24.4279 45.2451 24.0471C44.8521 23.9392 44.4539 23.8463 44.06 23.7434C43.2919 23.5435 42.8003 23.0814 42.5825 22.3679C42.4696 22.0004 42.3763 21.627 42.2571 21.2611C41.8953 20.1478 40.7983 19.411 39.551 19.4268C38.9865 19.4343 38.4646 19.6209 37.9312 19.7528C37.0467 19.9719 36.291 19.791 35.6545 19.1738C35.4465 18.9722 35.2322 18.7755 35.0189 18.5797C33.8721 17.5261 32.1803 17.512 31.0157 18.549C30.7748 18.7639 30.5436 18.9879 30.308 19.2078C29.6911 19.7835 28.9639 19.9744 28.1175 19.7587C27.8188 19.6823 27.5184 19.6101 27.2188 19.5347C25.6248 19.1339 24.1473 19.913 23.6974 21.3931C23.6005 21.7116 23.5134 22.0319 23.4192 22.3505C23.2031 23.0797 22.7 23.5427 21.923 23.7493C21.4971 23.8621 21.0651 23.9575 20.6446 24.0869C19.4889 24.4428 18.7492 25.4442 18.7866 26.5792C18.8052 27.1458 19.0355 27.6685 19.1751 28.2103C19.3617 28.9321 19.1848 29.5626 18.6363 30.0985C18.3296 30.398 17.9998 30.6785 17.7046 30.9871C16.7659 31.9694 16.765 33.4063 17.7029 34.3853C17.9838 34.679 18.2932 34.9478 18.5892 35.2291C19.1831 35.7932 19.3697 36.4495 19.1564 37.2219C19.0044 37.7703 18.7723 38.3054 18.7848 38.887C18.7892 39.9813 19.5289 40.9453 20.6455 41.2863C21.0766 41.4182 21.5194 41.5145 21.955 41.6331C22.7044 41.838 23.1951 42.2894 23.412 42.9913C23.5285 43.3687 23.6236 43.752 23.7463 44.1279C24.0975 45.1981 25.1696 45.9307 26.3671 45.9465C26.9912 45.9548 27.5619 45.739 28.1513 45.6038C28.9639 45.4171 29.6635 45.588 30.2636 46.1232C30.5445 46.3737 30.8094 46.64 31.093 46.8881C32.2105 47.8629 33.7912 47.8646 34.9077 46.8931C35.2002 46.6384 35.4723 46.3646 35.7612 46.1066C36.3435 45.5872 37.0298 45.4155 37.813 45.5988C38.1997 45.6893 38.5829 45.7946 38.9705 45.8801C40.44 46.202 41.842 45.437 42.2651 44.0847C42.3771 43.728 42.4723 43.3663 42.5825 43.0087C42.8012 42.2952 43.2937 41.8339 44.0618 41.6339C44.4459 41.5336 44.8317 41.4406 45.2148 41.3369C46.6461 40.9478 47.4676 39.6478 47.1369 38.288C47.0462 37.9155 46.9315 37.5479 46.8293 37.1771C46.6275 36.4445 46.8133 35.8065 47.3751 35.2648C47.6374 35.0117 47.9147 34.7711 48.1743 34.5156C49.2758 33.4287 49.2749 31.9412 48.1734 30.8593ZM40.2187 29.3386C40.1698 29.395 40.1137 29.4456 40.0586 29.497C37.2796 32.0914 34.4997 34.6848 31.7224 37.2808C31.486 37.5023 31.2255 37.6591 30.8352 37.6641C30.5765 37.6624 30.3178 37.562 30.1036 37.3621C28.6901 36.043 27.2739 34.7271 25.8657 33.403C25.4212 32.9849 25.4256 32.3801 25.8506 31.9843C26.2746 31.5894 26.9209 31.5878 27.3708 32.0034C28.4678 33.0164 29.5613 34.0327 30.6423 35.0615C30.8326 35.2424 30.9241 35.2183 31.0993 35.0532C33.5742 32.7327 36.059 30.4196 38.5367 28.1008C38.8683 27.7905 39.2336 27.6262 39.703 27.7589C40.4373 27.9672 40.7032 28.7827 40.2187 29.3386Z" fill="#00BE5D"/>
</svg>
