<svg width="36" height="36" viewBox="0 0 36 36" fill="none" xmlns="http://www.w3.org/2000/svg">
<circle cx="18" cy="18" r="18" fill="#0D87D4"/>
<path d="M17.9984 13.7623C16.8743 13.7623 15.7961 14.2088 15.0012 15.0037C14.2063 15.7986 13.7598 16.8768 13.7598 18.0009C13.7598 19.1251 14.2063 20.2032 15.0012 20.9981C15.7961 21.793 16.8743 22.2396 17.9984 22.2396C19.1226 22.2396 20.2007 21.793 20.9956 20.9981C21.7905 20.2032 22.2371 19.1251 22.2371 18.0009C22.2371 16.8768 21.7905 15.7986 20.9956 15.0037C20.2007 14.2088 19.1226 13.7623 17.9984 13.7623ZM17.9984 20.7537C17.2681 20.7537 16.5677 20.4636 16.0513 19.9471C15.5349 19.4307 15.2448 18.7303 15.2448 18C15.2448 17.2697 15.5349 16.5693 16.0513 16.0529C16.5677 15.5365 17.2681 15.2463 17.9984 15.2463C18.7287 15.2463 19.4292 15.5365 19.9456 16.0529C20.462 16.5693 20.7521 17.2697 20.7521 18C20.7521 18.7303 20.462 19.4307 19.9456 19.9471C19.4292 20.4636 18.7287 20.7537 17.9984 20.7537Z" fill="white"/>
<path d="M22.4061 14.5946C22.9519 14.5946 23.3943 14.1522 23.3943 13.6064C23.3943 13.0607 22.9519 12.6183 22.4061 12.6183C21.8604 12.6183 21.418 13.0607 21.418 13.6064C21.418 14.1522 21.8604 14.5946 22.4061 14.5946Z" fill="white"/>
<path d="M25.822 12.6017C25.6098 12.0537 25.2855 11.5561 24.8699 11.1406C24.4543 10.7252 23.9565 10.4011 23.4085 10.1891C22.7671 9.94832 22.0895 9.81814 21.4046 9.80408C20.5219 9.76558 20.2423 9.75458 18.0038 9.75458C15.7653 9.75458 15.4784 9.75458 14.603 9.80408C13.9186 9.81742 13.2415 9.94763 12.601 10.1891C12.0527 10.4008 11.5548 10.7248 11.1392 11.1403C10.7235 11.5558 10.3993 12.0536 10.1874 12.6017C9.94657 13.2431 9.81668 13.9207 9.80329 14.6056C9.76387 15.4874 9.75195 15.767 9.75195 18.0064C9.75195 20.2449 9.75195 20.53 9.80329 21.4072C9.81704 22.0929 9.94629 22.7694 10.1874 23.412C10.3999 23.9599 10.7244 24.4575 11.1402 24.873C11.5559 25.2884 12.0538 25.6125 12.6019 25.8247C13.2412 26.0751 13.9185 26.2146 14.6048 26.2372C15.4875 26.2757 15.7671 26.2876 18.0056 26.2876C20.2441 26.2876 20.531 26.2876 21.4065 26.2372C22.0913 26.2232 22.7688 26.0934 23.4103 25.8531C23.9582 25.6406 24.4559 25.3162 24.8714 24.9006C25.287 24.4851 25.6114 23.9874 25.8239 23.4395C26.065 22.7978 26.1942 22.1213 26.208 21.4357C26.2474 20.5538 26.2593 20.2742 26.2593 18.0348C26.2593 15.7954 26.2593 15.5112 26.208 14.634C26.1973 13.9394 26.0667 13.2519 25.822 12.6017ZM24.7055 21.3394C24.6996 21.8677 24.6032 22.391 24.4205 22.8867C24.2828 23.2432 24.072 23.5669 23.8018 23.837C23.5315 24.1072 23.2077 24.3177 22.8511 24.4552C22.3609 24.6371 21.8431 24.7335 21.3203 24.7402C20.4495 24.7806 20.2038 24.7907 17.9708 24.7907C15.736 24.7907 15.5077 24.7907 14.6204 24.7402C14.0978 24.7338 13.5803 24.6374 13.0905 24.4552C12.7327 24.3186 12.4075 24.1084 12.1361 23.8382C11.8647 23.568 11.653 23.2439 11.5147 22.8867C11.3345 22.3964 11.2382 21.8792 11.2296 21.3568C11.1902 20.486 11.181 20.2403 11.181 18.0073C11.181 15.7734 11.181 15.5452 11.2296 14.6569C11.2355 14.1289 11.332 13.6059 11.5147 13.1105C11.7943 12.3872 12.3672 11.818 13.0905 11.5412C13.5805 11.3598 14.0979 11.2634 14.6204 11.2561C15.4921 11.2167 15.7369 11.2057 17.9708 11.2057C20.2047 11.2057 20.4339 11.2057 21.3203 11.2561C21.8432 11.2624 22.361 11.3588 22.8511 11.5412C23.2076 11.6789 23.5314 11.8897 23.8017 12.1599C24.0719 12.4302 24.2827 12.754 24.4205 13.1105C24.6006 13.6009 24.697 14.1181 24.7055 14.6404C24.745 15.5122 24.755 15.7569 24.755 17.9908C24.755 20.2238 24.755 20.464 24.7156 21.3403H24.7055V21.3394Z" fill="white"/>
</svg>
