<svg width="36" height="36" viewBox="0 0 36 36" fill="none" xmlns="http://www.w3.org/2000/svg">
<path d="M1.425 24.9938C0.475 22.7688 0 20.4375 0 18C0 15.5625 0.475 13.2313 1.425 11.0063C2.375 8.78125 3.65313 6.86563 5.25938 5.25938C6.86563 3.65313 8.78125 2.375 11.0063 1.425C13.2313 0.475 15.5625 0 18 0C20.4375 0 22.7688 0.475 24.9938 1.425C27.2188 2.375 29.1344 3.65313 30.7406 5.25938C32.3469 6.86563 33.625 8.78125 34.575 11.0063C35.525 13.2313 36 15.5625 36 18C36 20.4375 35.525 22.7688 34.575 24.9938C33.625 27.2188 32.3469 29.1344 30.7406 30.7406C29.1344 32.3469 27.2188 33.625 24.9938 34.575C22.7688 35.525 20.4375 36 18 36C15.5625 36 13.2313 35.525 11.0063 34.575C8.78125 33.625 6.86563 32.3469 5.25938 30.7406C3.65313 29.1344 2.375 27.2188 1.425 24.9938ZM8.71875 23.7938C8.71875 24.7563 9.05938 25.575 9.74063 26.25C10.4219 26.925 11.2438 27.2625 12.2063 27.2625H23.8125C24.775 27.2625 25.5969 26.925 26.2781 26.25C26.9594 25.575 27.3 24.7563 27.3 23.7938V12.1875C27.3 11.225 26.9594 10.4063 26.2781 9.73125C25.5969 9.05625 24.775 8.71875 23.8125 8.71875H12.2063C11.2438 8.71875 10.4219 9.05625 9.74063 9.73125C9.05938 10.4063 8.71875 11.225 8.71875 12.1875V23.7938ZM11.8313 23.7938V16.0688C11.8313 15.9688 11.8688 15.8781 11.9438 15.7969C12.0188 15.7156 12.1062 15.675 12.2063 15.675H14.5313C14.6313 15.675 14.7188 15.7156 14.7938 15.7969C14.8688 15.8781 14.9063 15.9688 14.9063 16.0688V23.7938C14.9063 23.8938 14.8688 23.9844 14.7938 24.0656C14.7188 24.1469 14.6313 24.1875 14.5313 24.1875H12.2063C12.1062 24.1875 12.0188 24.1469 11.9438 24.0656C11.8688 23.9844 11.8313 23.8938 11.8313 23.7938ZM11.8313 13.2938C11.8313 12.8938 11.9781 12.5438 12.2719 12.2438C12.5656 11.9438 12.9125 11.7938 13.3125 11.7938C13.725 11.7938 14.0781 11.9406 14.3719 12.2344C14.6656 12.5281 14.8125 12.8813 14.8125 13.2938C14.8125 13.7063 14.6688 14.0563 14.3813 14.3438C14.0813 14.6438 13.725 14.7938 13.3125 14.7938C12.9125 14.7938 12.5656 14.65 12.2719 14.3625C11.9781 14.075 11.8313 13.7188 11.8313 13.2938ZM15.6938 23.7938V16.0125C15.6938 15.9125 15.7531 15.8313 15.8719 15.7688C15.9906 15.7063 16.1063 15.675 16.2188 15.675H18.3563C18.6438 15.675 18.7875 15.8188 18.7875 16.1063C18.7875 16.0688 18.8375 16.0187 18.9375 15.9563C19.5125 15.5938 20.1563 15.4125 20.8688 15.4125C21.9188 15.4125 22.7344 15.6781 23.3156 16.2094C23.8969 16.7406 24.1875 17.5188 24.1875 18.5438V23.7938C24.1875 23.8938 24.15 23.9844 24.075 24.0656C24 24.1469 23.9125 24.1875 23.8125 24.1875H21.5625C21.45 24.1875 21.3469 24.1469 21.2531 24.0656C21.1594 23.9844 21.1125 23.8938 21.1125 23.7938V19.05C21.1125 18.625 21.0469 18.325 20.9156 18.15C20.7844 17.975 20.5312 17.8875 20.1562 17.8875C19.2437 17.8875 18.7875 18.45 18.7875 19.575V23.7938C18.7875 23.8938 18.75 23.9844 18.675 24.0656C18.6 24.1469 18.5188 24.1875 18.4313 24.1875H16.2188C16.1063 24.1875 15.9906 24.1469 15.8719 24.0656C15.7531 23.9844 15.6938 23.8938 15.6938 23.7938Z" fill="#0D87D4"/>
</svg>
